<?xml version="1.0" encoding="UTF-8"?>
<!-- Generator: Adobe Illustrator 25.0.1, SVG Export Plug-In . SVG Version: 6.00 Build 0)  -->
<svg version="1.1" baseProfile="tiny" id="Ebene_2" xmlns="http://www.w3.org/2000/svg" xmlns:xlink="http://www.w3.org/1999/xlink" x="0px" y="0px" width="800" height="254" viewBox="0 0 800 254.2" overflow="visible" xml:space="preserve">
<g>
	<path fill-rule="evenodd" fill="none" d="M0,0h800v254.2H0V0z"/>
	<path fill="#FFFFFF" d="M275.2,136.8l24.5,0l15.3,86.7l-19.1,0l-7.9-67h-0.9l-8.2,67l-19.2,0L275.2,136.8 M448.9,179.3v1.3   l10.4,42.7h19l-11.1-37.6v-0.2l0.4-0.3c5.1-4.2,8-12,8-21.5v-1.5c0-7.9-2.4-14.4-7.1-19c-4.3-4.2-10-6.4-16.8-6.4h-23.8v86.6   l18.3,0v-72.3l0-0.2h2.9c6.8,0,8.2,7.1,8.3,12.1c0,0.1,0,3.8,0,4.2c-0.3,8.3-4,11.3-6.8,11.8c0,0-0.1,0-0.1,0L448.9,179.3    M207.1,159.4c0,13.5,8.2,20.4,15.8,26.5l2,1.6c6.6,5.5,10.5,10.9,10.5,15.3v0.3c0,6.2-2.6,7.6-5.3,7.6c-2.6,0-5.5-2.7-5.5-8   c0,0,0-6.4,0-6.5c-0.1,0-18.1,0-18.2,0c0,0.1,0,5.7,0,5.7c0,13.9,9.5,23.2,23.7,23.2c15.2,0,24.1-8.4,24.1-22.7v-0.8   c0-13.8-6-19.1-15.5-27.3l-4.2-3.6c-4.8-4-8.5-7.6-8.5-12.4v-0.5c0-2.6,0.9-7.3,5.4-7.3c4.2,0,5.1,5.4,5.1,8.2c0,0,0,5.7,0,5.8   c0.1,0,17.6,0,17.6,0c0-0.1,0-5.9,0-5.9c0-14.3-8.9-23.5-22.8-23.5c-11.7,0-24.2,7.2-24.2,23.2 M312.8,136.8v15c0,0,11.4,0,13.8,0   c0,2.9,0,71.6,0,71.6h18.6v-71.6h11.8v-15H312.8 M396.2,136.8v65.6c0,6.6-3.5,7.5-5.3,7.5c-3.2,0-5.3-2.6-5.3-7.5v-65.6h-18.5v67.7   c0,12.4,9.4,20.5,23.8,20.5c14.5,0,23.8-8,23.8-20.5v-67.7H396.2 M525.5,136.8l1,62H526l-14.1-62h-24.3v86.7h18.5l-1.5-62.2h0.5   l14.3,62.2l24.1,0v-86.7H525.5"/>
	<path fill="#EF7C00" d="M157.5,173.2c0,0.1,0.1,1.7,0.2,2.8c0,0.8,0,2,0,2c0,0,0.2,0.2,0.2,0.2c9.8,8,20.1,18.9,21.9,26.9   c0.5,2.2,0.4,4.2-0.5,5.9c-1,2-3,3.4-5.7,4.4c-14,4.8-47.3-4.4-74.6-17.8C79.6,188,62.6,176.6,51,165.4   c-10.7-10.4-13.6-18.5-10.9-23.4c1.1-1.9,2.9-3.2,5.3-4.2c8.9-3.5,25.9-1,42.7,4c-7.9,5.9-13.5,13.9-16,21.9c0,0,0,0,0,0   c0,0,0,0,0,0c-0.8,7.3,9.8,16.9,20.5,22.2c0,0,0.6,0.2,0.6,0.2c0,0-0.1-0.7-0.1-0.8c-2.5-18.2,11.3-45.4,25.7-51.4   c0.9-0.4,1.7-0.6,1.9-0.6c-0.1,0-4.6-0.3-5.3-0.4c-8.9-0.1-16.7,2.2-23.2,6.1c-28-9.6-48.4-10.7-57-7.9c-3.4,1.1-5.7,2.9-6.8,5.1   c-1.2,2.4-1.2,5.4,0,8.9c3.9,11.6,20.9,27.6,42.5,41.7c3.1,16.5,17.9,33.3,39,35.6c0,0,0.9,0.1,1,0.1c0,0,0.4,0,0.3,0   c-0.1-0.1-1.1-0.8-1.2-0.9c-6.5-5-12.4-13.3-14.4-20.5c0.4,0.2,1.9,1,2.3,1.1c34.1,16.8,69.8,25.4,85.7,20.1   c3.5-1.2,6.1-2.9,7.3-5.3c1.1-2.3,0.9-5.3-0.2-8.7c-3-8.9-15.7-22.4-32-34.5C158.5,173.9,157.6,173.3,157.5,173.2"/>
	<path fill-rule="evenodd" fill="#EF7C00" d="M139.5,99.6c0,0,67.4-49,171.4-64.9c104.4-15.9,205.6,2.9,265.3,21.1   c60,18.2,136,55.5,176.8,105.4h-6.6c0,0-49.8-63.2-170.3-95.2C459.2,35,293.4,30.4,163,112.9L139.5,99.6z"/>
	<path fill="#EF7C00" d="M579.6,179.8h7.7l15.6,43.8h-5.6l-3.4-9.9h-21.1l-3.5,9.9h-5.5L579.6,179.8z M592.4,209.5l-8.9-25.8h-0.4   l-9.3,25.8H592.4z"/>
	<path fill="#EF7C00" d="M609.9,179.8h18.7c11.5,0,13.9,2.6,13.9,12.1v1.5c0,7.2-1.9,9.7-6.1,10.5v0.1c4.9,0.9,6.1,3.2,6.1,11.7v7.9   h-5.3v-5.9c0-10-0.9-11.3-9.3-11.3h-12.6v17.2h-5.3V179.8z M629.6,202.2c5.9,0,7.6-1.9,7.6-8v-1.6c0-7.1-1.5-8.5-9.7-8.5h-12.3   v18.1H629.6z"/>
	<path fill="#EF7C00" d="M652.8,179.8h28.3v4.2h-23v14.8h21.7v4.1h-21.7v16.3h23.2v4.3h-28.5V179.8z"/>
	<path fill="#EF7C00" d="M689.8,179.8h8.2l23.2,39.1h0.2l-0.1-39.1h5.1v43.8h-8.1L695,184.4h-0.3l0.1,39.2h-5V179.8z"/>
	<path fill="#EF7C00" d="M749.4,179.8h7.7l15.6,43.8H767l-3.4-9.9h-21.1l-3.5,9.9h-5.5L749.4,179.8z M762.3,209.5l-8.9-25.8H753   l-9.3,25.8H762.3z"/>
</g>
</svg>